<?xml version="1.0" encoding="UTF-8" standalone="no"?>
<!-- Created with Inkscape (http://www.inkscape.org/) -->

<svg
   version="1.1"
   id="svg2"
   width="790.66669"
   height="1066.6667"
   viewBox="0 0 790.66669 1066.6667"
   sodipodi:docname="0.svg"
   inkscape:version="1.1.2 (0a00cf5339, 2022-02-04, custom)"
   xmlns:inkscape="http://www.inkscape.org/namespaces/inkscape"
   xmlns:sodipodi="http://sodipodi.sourceforge.net/DTD/sodipodi-0.dtd"
   xmlns="http://www.w3.org/2000/svg"
   xmlns:svg="http://www.w3.org/2000/svg">
  <defs
     id="defs6" />
  <sodipodi:namedview
     id="namedview4"
     pagecolor="#505050"
     bordercolor="#eeeeee"
     borderopacity="1"
     inkscape:pageshadow="0"
     inkscape:pageopacity="0"
     inkscape:pagecheckerboard="0"
     showgrid="false"
     inkscape:zoom="0.95326824"
     inkscape:cx="400.20215"
     inkscape:cy="490.4181"
     inkscape:window-width="1891"
     inkscape:window-height="1052"
     inkscape:window-x="0"
     inkscape:window-y="0"
     inkscape:window-maximized="1"
     inkscape:current-layer="g879"
     inkscape:snap-global="false" />
  <g
     inkscape:groupmode="layer"
     inkscape:label="Image"
     id="g8">
    <path
       id="rect849"
       style="display:none;fill:#483e37;stroke-width:1.88976"
       inkscape:label="9"
       d="M 89.296982,915.76678 H 441.99629 v 71.97407 H 89.296982 Z" />
    <path
       id="rect851"
       style="display:none;fill:#483e37;stroke-width:1.88976"
       inkscape:label="8"
       d="m 134.49965,147.81998 h 58.55604 v 779.4129 h -58.55604 z" />
    <path
       id="rect853"
       style="display:none;fill:#483e37;stroke-width:1.88976"
       inkscape:label="7"
       inkscape:transform-center-x="-188.7278"
       inkscape:transform-center-y="-27.883649"
       transform="rotate(-9.1620491)"
       d="M 60.366982,241.89061 H 500.9329 v 48.84597 H 60.366982 Z" />
    <path
       id="rect855"
       style="display:none;fill:#917c6f;stroke-width:1.88976"
       inkscape:label="6"
       d="m 458.54156,170.8139 33.64115,-5.23774 0.50781,162.94809 h -34.30954 z"
       sodipodi:nodetypes="ccccc" />
    <path
       id="path879"
       style="display:none;fill:#ff9955;stroke-width:1.88976"
       inkscape:label="5"
       d="m 547.9896,379.18875 a 70.526558,70.526558 0 0 1 -70.52656,70.52656 70.526558,70.526558 0 0 1 -70.52655,-70.52656 70.526558,70.526558 0 0 1 70.52655,-70.52656 70.526558,70.526558 0 0 1 70.52656,70.52656 z" />
    <path
       id="rect983"
       style="display:none;fill:#ff9955;stroke-width:1.88976"
       inkscape:label="4"
       d="m 461.69522,437.69312 h 31.81077 v 165.68817 h -31.81077 z" />
    <g
       id="g1275"
       style="display:none;fill:#ff9955"
       inkscape:label="3">
      <path
         id="rect1065"
         style="stroke-width:1.88976"
         inkscape:transform-center-x="63.2896"
         inkscape:transform-center-y="30.503362"
         transform="rotate(-115.8434)"
         d="m -676.42438,57.220341 h 31.81077 V 222.90851 h -31.81077 z" />
      <path
         id="rect1169"
         style="stroke-width:1.88976"
         inkscape:transform-center-x="-47.938837"
         inkscape:transform-center-y="-54.633502"
         transform="rotate(-136.16085)"
         d="m -654.20752,-181.20868 h 31.81077 v 165.688172 h -31.81077 z" />
    </g>
    <g
       id="g1281"
       transform="matrix(-1,0,0,1,958.89238,0)"
       style="display:none;fill:#ff9955"
       inkscape:label="2">
      <path
         id="rect1277"
         style="stroke-width:1.88976"
         inkscape:transform-center-x="63.2896"
         inkscape:transform-center-y="30.503362"
         transform="rotate(-115.8434)"
         d="m -676.42438,57.220341 h 31.81077 V 222.90851 h -31.81077 z" />
      <path
         id="rect1279"
         style="stroke-width:1.88976"
         inkscape:transform-center-x="-47.938837"
         inkscape:transform-center-y="-54.633502"
         transform="rotate(-136.16085)"
         d="m -654.20752,-181.20868 h 31.81077 v 165.688172 h -31.81077 z" />
    </g>
    <g
       id="g1302"
       style="display:none;fill:#ff9955"
       inkscape:label="1">
      <path
         id="rect1285"
         style="stroke-width:1.88976"
         inkscape:transform-center-x="42.041966"
         inkscape:transform-center-y="56.374691"
         transform="rotate(36.24607)"
         d="m 726.79449,198.43272 23.22989,-9.2943 8.58088,9.2943 V 364.1209 h -31.81077 z"
         sodipodi:nodetypes="cccccc" />
      <path
         id="rect1169-6"
         style="stroke-width:1.88976"
         inkscape:transform-center-x="-12.787944"
         inkscape:transform-center-y="64.412746"
         transform="rotate(170.59943)"
         d="m -279.53763,-939.92694 h 31.81077 v 165.68817 h -31.81077 z" />
    </g>
    <g
       id="g1308"
       transform="matrix(-1,0,0,1,956.17492,-5.180422)"
       style="display:none;fill:#ff9955"
       inkscape:label="0">
      <path
         id="rect1304"
         style="stroke-width:1.88976"
         inkscape:transform-center-x="-23.730746"
         inkscape:transform-center-y="64.586832"
         transform="rotate(17.652943)"
         d="m 620.10669,425.11166 h 31.81077 v 165.68818 h -31.81077 z" />
      <path
         id="rect1306"
         style="stroke-width:1.88976"
         inkscape:transform-center-x="-0.78336885"
         inkscape:transform-center-y="71.194348"
         transform="rotate(-178.51724)"
         d="m -462.85263,-905.80951 h 31.81077 v 165.68817 h -31.81077 z" />
    </g>
    <g
       id="g4086"
       style="display:none;fill:#ff0000">
      <path
         id="rect4041"
         style="display:inline;stroke-width:1.88976"
         inkscape:label="9"
         d="M 89.296982,915.76678 H 441.99629 v 71.97407 H 89.296982 Z" />
      <path
         id="circle4043"
         style="display:inline;stroke-width:1.88976"
         inkscape:label="5"
         d="m 547.9896,379.18875 a 70.526558,70.526558 0 0 1 -70.52656,70.52656 70.526558,70.526558 0 0 1 -70.52655,-70.52656 70.526558,70.526558 0 0 1 70.52655,-70.52656 70.526558,70.526558 0 0 1 70.52656,70.52656 z" />
      <path
         id="rect4045"
         style="display:inline;stroke-width:1.88976"
         inkscape:label="4"
         d="m 461.69522,437.69312 h 31.81077 v 165.68817 h -31.81077 z" />
      <g
         id="g4051"
         style="display:inline;fill:#ff0000"
         inkscape:label="3">
        <path
           id="rect4047"
           style="stroke-width:1.88976"
           inkscape:transform-center-x="63.2896"
           inkscape:transform-center-y="30.503362"
           transform="rotate(-115.8434)"
           d="m -676.42438,57.220341 h 31.81077 V 222.90851 h -31.81077 z" />
        <path
           id="rect4049"
           style="stroke-width:1.88976"
           inkscape:transform-center-x="-47.938837"
           inkscape:transform-center-y="-54.633502"
           transform="rotate(-136.16085)"
           d="m -654.20752,-181.20868 h 31.81077 v 165.688172 h -31.81077 z" />
      </g>
      <g
         id="g4057"
         transform="matrix(-1,0,0,1,958.89238,0)"
         style="display:inline;fill:#ff0000"
         inkscape:label="2">
        <path
           id="rect4053"
           style="stroke-width:1.88976"
           inkscape:transform-center-x="63.2896"
           inkscape:transform-center-y="30.503362"
           transform="rotate(-115.8434)"
           d="m -676.42438,57.220341 h 31.81077 V 222.90851 h -31.81077 z" />
        <path
           id="rect4055"
           style="stroke-width:1.88976"
           inkscape:transform-center-x="-47.938837"
           inkscape:transform-center-y="-54.633502"
           transform="rotate(-136.16085)"
           d="m -654.20752,-181.20868 h 31.81077 v 165.688172 h -31.81077 z" />
      </g>
      <g
         id="g4063"
         style="display:inline;fill:#ff0000"
         inkscape:label="1">
        <path
           id="path4059"
           style="fill:#ff0000;stroke-width:1.88976"
           inkscape:transform-center-x="42.041966"
           inkscape:transform-center-y="56.374691"
           transform="rotate(36.24607)"
           d="m 726.79449,198.43272 23.22989,-9.2943 8.58088,9.2943 V 364.1209 h -31.81077 z"
           sodipodi:nodetypes="cccccc" />
        <path
           id="rect4061"
           style="stroke-width:1.88976"
           inkscape:transform-center-x="-12.787944"
           inkscape:transform-center-y="64.412746"
           transform="rotate(170.59943)"
           d="m -279.53763,-939.92694 h 31.81077 v 165.68817 h -31.81077 z" />
      </g>
      <g
         id="g4069"
         transform="matrix(-1,0,0,1,956.17492,-5.180422)"
         style="display:inline;fill:#ff0000"
         inkscape:label="0">
        <path
           id="rect4065"
           style="stroke-width:1.88976"
           inkscape:transform-center-x="-23.730746"
           inkscape:transform-center-y="64.586832"
           transform="rotate(17.652943)"
           d="m 620.10669,425.11166 h 31.81077 v 165.68818 h -31.81077 z" />
        <path
           id="rect4067"
           style="stroke-width:1.88976"
           inkscape:transform-center-x="-0.78336885"
           inkscape:transform-center-y="71.194348"
           transform="rotate(-178.51724)"
           d="m -462.85263,-905.80951 h 31.81077 v 165.68817 h -31.81077 z" />
      </g>
    </g>
    <g
       id="g2121"
       transform="matrix(0.34745877,0,0,0.34745877,531.90926,290.34808)"
       style="display:inline;fill:#ffffff">
      <g
         id="g2108"
         style="fill:#ffffff">
        <path
           id="rect1404"
           style="stroke-width:1.88976"
           transform="rotate(-45)"
           d="m -331.16251,-61.370045 h 120.86074 v 17.861407 h -120.86074 z" />
        <path
           id="rect1406"
           style="stroke-width:1.88976"
           transform="rotate(-135)"
           d="M -7.9910231,-279.66284 H 112.86971 v 17.8614 H -7.9910231 Z" />
      </g>
      <g
         id="g2112"
         style="fill:#ffffff">
        <path
           id="rect1506"
           style="stroke-width:1.88976"
           transform="rotate(-45)"
           d="M -226.86594,49.377911 H -106.0052 V 67.239317 H -226.86594 Z" />
        <path
           id="rect1508"
           style="stroke-width:1.88976"
           transform="rotate(-135)"
           d="M -118.73898,-175.36627 H 2.1217499 v 17.8614 H -118.73898 Z" />
      </g>
      <path
         style="color:#000000;fill:#ffffff;-inkscape-stroke:none"
         d="m -237.99842,342.24423 -59.64648,-57.85156 13.15625,-13.56445 44.33008,42.99609 48.03125,-63.3164 43.61328,54.55859 48.05273,-62.32813 36.505864,62.55664 40.55664,-40.51367 13.355469,13.36914 -57.886719,57.82618 -34.705074,-59.46875 -45.60938,59.1621 -43.49219,-54.41015 z"
         id="path1855" />
    </g>
    <g
       id="g893"
       style="fill:#ff9955">
      <path
         id="path863"
         style="display:inline;fill:#483e37;fill-opacity:1;stroke-width:1.88976"
         inkscape:label="9"
         d="M 89.296982,915.76678 H 441.99629 v 71.97407 H 89.296982 Z" />
      <path
         id="path865"
         style="display:inline;fill:#ff9955;stroke-width:1.88976"
         inkscape:label="5"
         d="m 547.9896,379.18875 a 70.526558,70.526558 0 0 1 -70.52656,70.52656 70.526558,70.526558 0 0 1 -70.52655,-70.52656 70.526558,70.526558 0 0 1 70.52655,-70.52656 70.526558,70.526558 0 0 1 70.52656,70.52656 z" />
      <path
         id="path867"
         style="display:inline;fill:#ff9955;stroke-width:1.88976"
         inkscape:label="4"
         d="m 461.69522,437.69312 h 31.81077 v 165.68817 h -31.81077 z" />
      <g
         id="g873"
         style="display:inline;fill:#ff9955"
         inkscape:label="3">
        <path
           id="path869"
           style="fill:#ff9955;stroke-width:1.88976"
           inkscape:transform-center-x="62.159577"
           inkscape:transform-center-y="-32.744705"
           d="m 334.35873,445.77312 14.77155,-28.17315 146.74143,76.93843 -14.77154,28.17315 z" />
        <path
           id="path871"
           style="fill:#ff9955;stroke-width:1.88976"
           inkscape:transform-center-x="64.390355"
           inkscape:transform-center-y="-33.71697"
           d="M 357.83347,423.03979 341.8265,450.52983 198.64311,367.15664 214.65008,339.6666 Z" />
      </g>
      <g
         id="g879"
         transform="matrix(-1,0,0,1,958.89238,0)"
         style="display:inline;fill:#ff9955"
         inkscape:label="2">
        <path
           id="path875"
           style="fill:#ff9955;stroke-width:1.88976"
           inkscape:transform-center-x="-64.537921"
           inkscape:transform-center-y="-31.074902"
           d="m 332.08728,445.35374 14.68559,-28.21806 146.97529,76.49074 -14.68559,28.21805 z" />
        <path
           id="path877"
           style="fill:#ff9955;stroke-width:1.88976"
           inkscape:transform-center-x="-62.262871"
           inkscape:transform-center-y="-35.175071"
           d="m 193.74576,364.36055 15.76768,-27.62797 143.90187,82.12686 -15.76768,27.62798 z" />
      </g>
      <g
         id="g20398">
        <path
           style="fill:none;stroke:#ffffff;stroke-width:15.1181;stroke-linecap:round;stroke-linejoin:miter;stroke-miterlimit:4;stroke-dasharray:none;stroke-opacity:1"
           d="m 422.70084,395.11654 c 24.71731,62.86669 99.76724,41.44849 111.10598,-8.63119"
           id="path19626"
           sodipodi:nodetypes="cc" />
        <path
           style="fill:none;stroke:#ffffff;stroke-width:7.73342;stroke-linecap:round;stroke-linejoin:miter;stroke-miterlimit:4;stroke-dasharray:none;stroke-opacity:1"
           d="m 413.9299,365.16124 c 12.64374,-32.15844 51.03432,-21.2023 56.83447,4.41515"
           id="path20218"
           sodipodi:nodetypes="cc" />
        <path
           style="fill:none;stroke:#ffffff;stroke-width:7.73342;stroke-linecap:round;stroke-linejoin:miter;stroke-miterlimit:4;stroke-dasharray:none;stroke-opacity:1"
           d="m 540.03058,363.59 c -12.64374,-32.15844 -51.03432,-21.2023 -56.83447,4.41515"
           id="path20313"
           sodipodi:nodetypes="cc" />
      </g>
      <g
         id="g885"
         style="display:inline;fill:#ff9955"
         inkscape:label="1">
        <path
           id="path881"
           style="fill:#ff9955;stroke-width:1.88976"
           inkscape:transform-center-x="42.041966"
           inkscape:transform-center-y="56.374691"
           transform="rotate(36.24607)"
           d="m 726.79449,198.43272 23.22989,-9.2943 8.58088,9.2943 V 364.1209 h -31.81077 z"
           sodipodi:nodetypes="cccccc" />
        <path
           id="path883"
           style="fill:#ff9955;stroke-width:1.88976"
           inkscape:transform-center-x="32.537991"
           inkscape:transform-center-y="57.042201"
           d="m 314.73477,876.1745 -27.11452,-16.63514 86.64507,-141.22748 27.11452,16.63514 z" />
      </g>
      <g
         id="g891"
         transform="matrix(-1,0,0,1,956.17492,-5.180422)"
         style="display:inline;fill:#ff9955"
         inkscape:label="0">
        <path
           id="path887"
           style="fill:#ff9955;stroke-width:1.88976"
           inkscape:transform-center-x="-23.730746"
           inkscape:transform-center-y="64.586832"
           transform="rotate(17.652943)"
           d="m 620.10669,425.11166 h 31.81077 v 165.68818 h -31.81077 z" />
        <path
           id="path889"
           style="fill:#ff9955;stroke-width:1.88976"
           inkscape:transform-center-x="-71.126325"
           inkscape:transform-center-y="3.2085208"
           d="m 275.39463,770.01898 -0.96064,-31.79626 165.6126,-5.00358 0.96064,31.79627 z" />
      </g>
    </g>
  </g>
</svg>
